<?xml version="1.0" standalone="no"?><!DOCTYPE svg PUBLIC "-//W3C//DTD SVG 1.1//EN" "http://www.w3.org/Graphics/SVG/1.1/DTD/svg11.dtd"><svg class="icon" height="512" viewBox="0 0 1024 1024" version="1.1" xmlns="http://www.w3.org/2000/svg"><path d="M947.246919 351.85258c-9.212826-5.884011-21.024849-5.771447-30.115901 0.289596L750.554164 463.190341 564.027957 265.690198c25.331945-15.532765 42.269709-43.47721 42.269709-75.308173 0-48.675606-39.597857-88.275509-88.273463-88.275509-48.675606 0-88.277556 39.599903-88.277556 88.275509 0 28.791743 13.859659 54.402027 35.252899 70.526263L276.66925 458.563974 105.452727 343.046007c-9.162684-6.191003-21.150716-6.287193-30.430056-0.252757-9.271154 6.036483-14.031575 17.034978-12.08627 27.926026l45.905516 257.068843c2.671852 14.975063 16.972557 24.935925 31.953759 22.273283 14.973016-2.673899 24.947182-16.981766 22.271236-31.956829l-34.459836-192.987363 136.544863 92.12621c11.135618 7.511067 26.072819 5.89322 35.342949-3.830235l211.790614-222.276433 214.180034 226.776933c9.221012 9.761318 24.131607 11.453866 35.303041 4.00522l133.74305-89.162716-67.0153 428.898327L205.829855 861.654518l-21.100574-87.219457 561.76338 0c15.210423 0 27.54331-12.332886 27.54331-27.54331 0-15.210423-12.332886-27.54331-27.54331-27.54331L149.72607 719.348442c-8.445346 0-16.420995 3.873214-21.643949 10.512425-5.222955 6.635117-7.114025 15.300474-5.128811 23.508413l34.429137 142.306076c2.990101 12.359492 14.054087 21.064758 26.771737 21.064758l667.919119 0c13.570063 0 25.118074-9.885138 27.211758-23.293519l80.33363-514.136663C961.309192 368.513028 956.454628 357.740684 947.246919 351.85258zM518.025227 157.193135c18.298761 0 33.186843 14.888082 33.186843 33.18889s-14.888082 33.18889-33.186843 33.18889c-18.303878 0-33.19196-14.888082-33.19196-33.18889S499.721349 157.193135 518.025227 157.193135z" /></svg>